<?xml version="1.0" encoding="UTF-8" standalone="no"?>
<!DOCTYPE svg PUBLIC "-//W3C//DTD SVG 1.1//EN" "http://www.w3.org/Graphics/SVG/1.1/DTD/svg11.dtd">
<svg width="100%" height="100%" viewBox="0 0 750 100" version="1.1" xmlns="http://www.w3.org/2000/svg" xmlns:xlink="http://www.w3.org/1999/xlink" xml:space="preserve" xmlns:serif="http://www.serif.com/" style="fill-rule:evenodd;clip-rule:evenodd;stroke-linejoin:round;stroke-miterlimit:2;">
    <g transform="matrix(0.444444,0,0,0.444444,-75.1111,-61.3333)">
        <g transform="matrix(234.375,0,0,234.375,171.227,346.125)">
            <path d="M0.259,-0L0.259,-0.771L0.401,-0.771L0.401,-0.799L0.008,-0.799L0.008,-0.771L0.154,-0.771L0.154,-0L0.259,-0Z" style="fill:rgb(19,41,76);fill-rule:nonzero;"/>
        </g>
        <g transform="matrix(234.375,0,0,234.375,267.086,346.125)">
            <path d="M0.443,-0L0.443,-0.482C0.443,-0.579 0.38,-0.649 0.284,-0.649C0.193,-0.649 0.156,-0.586 0.14,-0.55L0.14,-0.816L0.036,-0.783L0.036,-0L0.14,-0L0.14,-0.482C0.155,-0.551 0.187,-0.598 0.242,-0.598C0.299,-0.598 0.339,-0.548 0.339,-0.467L0.339,-0L0.443,-0Z" style="fill:rgb(19,41,76);fill-rule:nonzero;"/>
        </g>
        <g transform="matrix(234.375,0,0,234.375,378.883,346.125)">
            <path d="M0.407,-0.107C0.369,-0.044 0.337,-0.018 0.295,-0.018C0.19,-0.018 0.141,-0.173 0.141,-0.314C0.141,-0.332 0.141,-0.35 0.142,-0.358L0.488,-0.358C0.488,-0.516 0.423,-0.649 0.285,-0.649C0.14,-0.649 0.028,-0.505 0.028,-0.301C0.028,-0.126 0.111,0.016 0.26,0.016C0.346,0.016 0.391,-0.032 0.431,-0.097L0.407,-0.107ZM0.147,-0.397C0.161,-0.511 0.195,-0.615 0.279,-0.615C0.371,-0.615 0.404,-0.492 0.404,-0.397L0.147,-0.397Z" style="fill:rgb(19,41,76);fill-rule:nonzero;"/>
        </g>
        <g transform="matrix(234.375,0,0,234.375,557.945,346.125)">
            <path d="M0.459,-0.121C0.434,-0.059 0.361,-0.015 0.304,-0.015C0.197,-0.015 0.137,-0.178 0.137,-0.407C0.137,-0.634 0.196,-0.779 0.318,-0.779C0.387,-0.779 0.441,-0.732 0.466,-0.671L0.508,-0.682C0.456,-0.778 0.402,-0.807 0.31,-0.807C0.11,-0.807 0.028,-0.668 0.028,-0.381C0.028,-0.095 0.11,0.016 0.269,0.016C0.367,0.016 0.452,-0.026 0.5,-0.121L0.459,-0.121Z" style="fill:rgb(19,41,76);fill-rule:nonzero;"/>
        </g>
        <g transform="matrix(234.375,0,0,234.375,677.242,346.125)">
            <path d="M0.32,-0.132C0.304,-0.07 0.264,-0.015 0.209,-0.015C0.149,-0.015 0.122,-0.077 0.122,-0.163C0.122,-0.241 0.144,-0.285 0.198,-0.31C0.265,-0.342 0.291,-0.355 0.32,-0.378L0.32,-0.132ZM0.449,-0C0.431,-0.022 0.424,-0.047 0.424,-0.082L0.424,-0.5C0.424,-0.58 0.373,-0.649 0.247,-0.649C0.165,-0.649 0.101,-0.62 0.059,-0.564L0.091,-0.548C0.125,-0.591 0.155,-0.611 0.209,-0.611C0.291,-0.611 0.32,-0.565 0.32,-0.485L0.32,-0.411C0.285,-0.38 0.273,-0.375 0.178,-0.337C0.09,-0.302 0.018,-0.256 0.018,-0.143C0.018,-0.054 0.064,0.016 0.18,0.016C0.266,0.016 0.299,-0.021 0.319,-0.061C0.319,-0.044 0.327,-0.019 0.341,-0L0.449,-0Z" style="fill:rgb(19,41,76);fill-rule:nonzero;"/>
        </g>
        <g transform="matrix(234.375,0,0,234.375,785.055,346.125)">
            <path d="M0.14,-0L0.14,-0.432C0.163,-0.506 0.201,-0.569 0.249,-0.569C0.26,-0.569 0.27,-0.566 0.277,-0.561L0.327,-0.626C0.311,-0.641 0.293,-0.649 0.27,-0.649C0.215,-0.649 0.172,-0.602 0.14,-0.494L0.14,-0.641L0.036,-0.609L0.036,-0L0.14,-0Z" style="fill:rgb(19,41,76);fill-rule:nonzero;"/>
        </g>
        <g transform="matrix(234.375,0,0,234.375,851.852,346.125)">
            <path d="M0.249,0.016C0.396,0.016 0.493,-0.077 0.493,-0.332C0.493,-0.543 0.425,-0.649 0.27,-0.649C0.087,-0.649 0.028,-0.503 0.028,-0.3C0.028,-0.092 0.09,0.016 0.249,0.016ZM0.276,-0.016C0.18,-0.016 0.133,-0.128 0.133,-0.347C0.133,-0.541 0.17,-0.613 0.241,-0.613C0.329,-0.613 0.394,-0.502 0.394,-0.272C0.394,-0.08 0.348,-0.016 0.276,-0.016Z" style="fill:rgb(19,41,76);fill-rule:nonzero;"/>
        </g>
        <g transform="matrix(234.375,0,0,234.375,973.961,346.125)">
            <path d="M0.14,-0L0.14,-0.816L0.036,-0.783L0.036,-0L0.14,-0Z" style="fill:rgb(19,41,76);fill-rule:nonzero;"/>
        </g>
        <g transform="matrix(234.375,0,0,234.375,1014.74,346.125)">
            <path d="M0.09,-0.71C0.123,-0.71 0.15,-0.739 0.15,-0.772C0.15,-0.806 0.125,-0.833 0.09,-0.833C0.057,-0.833 0.029,-0.806 0.029,-0.772C0.029,-0.739 0.057,-0.71 0.09,-0.71ZM0.14,-0L0.14,-0.641L0.036,-0.609L0.036,-0L0.14,-0Z" style="fill:rgb(19,41,76);fill-rule:nonzero;"/>
        </g>
        <g transform="matrix(234.375,0,0,234.375,1056.23,346.125)">
            <path d="M0.443,-0L0.443,-0.482C0.443,-0.579 0.38,-0.649 0.283,-0.649C0.192,-0.649 0.155,-0.587 0.14,-0.55L0.14,-0.641L0.036,-0.609L0.036,-0L0.14,-0L0.14,-0.482C0.155,-0.551 0.187,-0.598 0.242,-0.598C0.299,-0.598 0.339,-0.548 0.339,-0.467L0.339,-0L0.443,-0Z" style="fill:rgb(19,41,76);fill-rule:nonzero;"/>
        </g>
        <g transform="matrix(234.375,0,0,234.375,1168.02,346.125)">
            <path d="M0.32,-0.132C0.304,-0.07 0.264,-0.015 0.209,-0.015C0.149,-0.015 0.122,-0.077 0.122,-0.163C0.122,-0.241 0.144,-0.285 0.198,-0.31C0.265,-0.342 0.291,-0.355 0.32,-0.378L0.32,-0.132ZM0.449,-0C0.431,-0.022 0.424,-0.047 0.424,-0.082L0.424,-0.5C0.424,-0.58 0.373,-0.649 0.247,-0.649C0.165,-0.649 0.101,-0.62 0.059,-0.564L0.091,-0.548C0.125,-0.591 0.155,-0.611 0.209,-0.611C0.291,-0.611 0.32,-0.565 0.32,-0.485L0.32,-0.411C0.285,-0.38 0.273,-0.375 0.178,-0.337C0.09,-0.302 0.018,-0.256 0.018,-0.143C0.018,-0.054 0.064,0.016 0.18,0.016C0.266,0.016 0.299,-0.021 0.319,-0.061C0.319,-0.044 0.327,-0.019 0.341,-0L0.449,-0Z" style="fill:rgb(19,41,76);fill-rule:nonzero;"/>
        </g>
        <g transform="matrix(234.375,0,0,234.375,1335.84,346.125)">
            <path d="M0.339,-0.087C0.339,-0.03 0.373,0.012 0.46,0.012C0.483,0.012 0.489,0.009 0.501,0.006C0.462,-0.005 0.443,-0.036 0.443,-0.087L0.443,-0.237C0.443,-0.332 0.397,-0.385 0.331,-0.397C0.406,-0.42 0.441,-0.496 0.441,-0.589C0.441,-0.714 0.379,-0.799 0.254,-0.799L0.036,-0.799L0.036,-0L0.14,-0L0.14,-0.385L0.25,-0.385C0.303,-0.385 0.339,-0.351 0.339,-0.278L0.339,-0.087ZM0.14,-0.414L0.14,-0.771L0.187,-0.771C0.286,-0.771 0.337,-0.712 0.337,-0.578C0.337,-0.476 0.307,-0.414 0.249,-0.414L0.14,-0.414Z" style="fill:rgb(19,41,76);fill-rule:nonzero;"/>
        </g>
        <g transform="matrix(234.375,0,0,234.375,1453.26,346.125)">
            <path d="M0.32,-0.132C0.304,-0.07 0.264,-0.015 0.209,-0.015C0.149,-0.015 0.122,-0.077 0.122,-0.163C0.122,-0.241 0.144,-0.285 0.198,-0.31C0.265,-0.342 0.291,-0.355 0.32,-0.378L0.32,-0.132ZM0.449,-0C0.431,-0.022 0.424,-0.047 0.424,-0.082L0.424,-0.5C0.424,-0.58 0.373,-0.649 0.247,-0.649C0.165,-0.649 0.101,-0.62 0.059,-0.564L0.091,-0.548C0.125,-0.591 0.155,-0.611 0.209,-0.611C0.291,-0.611 0.32,-0.565 0.32,-0.485L0.32,-0.411C0.285,-0.38 0.273,-0.375 0.178,-0.337C0.09,-0.302 0.018,-0.256 0.018,-0.143C0.018,-0.054 0.064,0.016 0.18,0.016C0.266,0.016 0.299,-0.021 0.319,-0.061C0.319,-0.044 0.327,-0.019 0.341,-0L0.449,-0Z" style="fill:rgb(19,41,76);fill-rule:nonzero;"/>
        </g>
        <g transform="matrix(234.375,0,0,234.375,1561.07,346.125)">
            <path d="M0.411,-0L0.411,-0.028L0.131,-0.028L0.423,-0.635L0.027,-0.635L0.027,-0.607L0.305,-0.607L0.012,-0L0.411,-0Z" style="fill:rgb(19,41,76);fill-rule:nonzero;"/>
        </g>
        <g transform="matrix(234.375,0,0,234.375,1653.65,346.125)">
            <path d="M0.249,0.016C0.396,0.016 0.493,-0.077 0.493,-0.332C0.493,-0.543 0.425,-0.649 0.27,-0.649C0.087,-0.649 0.028,-0.503 0.028,-0.3C0.028,-0.092 0.09,0.016 0.249,0.016ZM0.276,-0.016C0.18,-0.016 0.133,-0.128 0.133,-0.347C0.133,-0.541 0.17,-0.613 0.241,-0.613C0.329,-0.613 0.394,-0.502 0.394,-0.272C0.394,-0.08 0.348,-0.016 0.276,-0.016Z" style="fill:rgb(19,41,76);fill-rule:nonzero;"/>
        </g>
        <g transform="matrix(234.375,0,0,234.375,1775.76,346.125)">
            <path d="M0.14,-0L0.14,-0.432C0.163,-0.506 0.201,-0.569 0.249,-0.569C0.26,-0.569 0.27,-0.566 0.277,-0.561L0.327,-0.626C0.311,-0.641 0.293,-0.649 0.27,-0.649C0.215,-0.649 0.172,-0.602 0.14,-0.494L0.14,-0.641L0.036,-0.609L0.036,-0L0.14,-0Z" style="fill:rgb(19,41,76);fill-rule:nonzero;"/>
        </g>
    </g>
</svg>
