<?xml version="1.0" encoding="UTF-8" standalone="no"?>
<svg
   width="1106.1851"
   height="1106.1851"
   viewBox="0 0 1106.1851 1106.1851"
   version="1.1"
   xml:space="preserve"
   style="clip-rule:evenodd;fill-rule:evenodd;stroke-linejoin:round;stroke-miterlimit:2"
   id="svg1"
   sodipodi:docname="favicon-dark.svg"
   inkscape:version="1.4.2 (ebf0e940d0, 2025-05-08)"
   xmlns:inkscape="http://www.inkscape.org/namespaces/inkscape"
   xmlns:sodipodi="http://sodipodi.sourceforge.net/DTD/sodipodi-0.dtd"
   xmlns="http://www.w3.org/2000/svg"
   xmlns:svg="http://www.w3.org/2000/svg"><defs
   id="defs1" /><sodipodi:namedview
   id="namedview1"
   pagecolor="#ffffff"
   bordercolor="#111111"
   borderopacity="1"
   inkscape:showpageshadow="0"
   inkscape:pageopacity="0"
   inkscape:pagecheckerboard="1"
   inkscape:deskcolor="#d1d1d1"
   inkscape:zoom="0.35300134"
   inkscape:cx="648.72275"
   inkscape:cy="892.34788"
   inkscape:window-width="1536"
   inkscape:window-height="833"
   inkscape:window-x="0"
   inkscape:window-y="0"
   inkscape:window-maximized="1"
   inkscape:current-layer="g1"><inkscape:page
     x="0"
     y="0"
     width="1106.1851"
     height="1106.1851"
     id="page2"
     margin="0"
     bleed="0" /></sodipodi:namedview>
    
<g
   style="clip-rule:evenodd;fill-rule:evenodd;stroke-linejoin:round;stroke-miterlimit:2"
   id="g1"
   transform="translate(-81.720991,-87.044991)"><path
     d="m 207.649,122.364 287.912,-1.309 52.651,-32.202 182.897,-2.308 45.737,28.811 306.794,-1.411 5.51,10.845 2.92,252.71 -4.22,9.765 0.26,143.086 -172.39,-1.292 -47.792,-156.275 -103.428,-25.038 -17.148,80.821 12.085,33.898 c 0,0 131.868,20.436 130.99,77.81 0,0 10.556,43.193 12.184,124.881 0,0 -11.429,243.664 115.199,384.784 l 47.17,35.62 50.34,76.15 -10.13,12.83 c 0,0 -313.442,25.52 -454.084,16.68 L 670.063,1056.84 551.982,936.214 637.424,683.368 468.847,939.84 l 135.418,124.62 -39.886,129.27 c 0,0 -253.964,-2.98 -390.723,-8.04 l -19.349,-16.99 c 0,0 17.349,-60.13 53.037,-85.13 0,0 40.552,-27.16 56.202,-42.65 15.65,-15.49 99.654,-144.039 102.853,-369.008 0,0 3.33,-74.921 8.134,-132.844 4.805,-57.923 88.667,-57.649 137.761,-79.45 l 12.724,-33.284 -19.031,-92.161 -100.509,36.302 -51.659,162.026 -168.655,1.524 -6.818,-411.377 z"
     id="path1"
     style="fill:#000000" /></g></svg>
