<?xml version="1.0" encoding="UTF-8" standalone="no"?>
<!-- Created with Inkscape (http://www.inkscape.org/) -->

<svg
   width="146.96448mm"
   height="35.094334mm"
   viewBox="0 0 146.96448 35.094334"
   version="1.1"
   id="svg1"
   sodipodi:docname="logo_tagline.svg"
   inkscape:version="1.4.2 (ebf0e940d0, 2025-05-08)"
   xmlns:inkscape="http://www.inkscape.org/namespaces/inkscape"
   xmlns:sodipodi="http://sodipodi.sourceforge.net/DTD/sodipodi-0.dtd"
   xmlns="http://www.w3.org/2000/svg"
   xmlns:svg="http://www.w3.org/2000/svg">
  <sodipodi:namedview
     id="namedview1"
     pagecolor="#848484"
     bordercolor="#111111"
     borderopacity="1"
     inkscape:showpageshadow="0"
     inkscape:pageopacity="0"
     inkscape:pagecheckerboard="1"
     inkscape:deskcolor="#d1d1d1"
     inkscape:document-units="mm"
     inkscape:zoom="1.9101413"
     inkscape:cx="277.72815"
     inkscape:cy="126.6922"
     inkscape:window-width="1920"
     inkscape:window-height="1049"
     inkscape:window-x="0"
     inkscape:window-y="0"
     inkscape:window-maximized="1"
     inkscape:current-layer="layer1">
    <inkscape:page
       x="0"
       y="8.4202143e-14"
       width="146.96448"
       height="35.094334"
       id="page2"
       margin="0"
       bleed="0" />
  </sodipodi:namedview>
  <defs
     id="defs1" />
  <g
     inkscape:label="Layer 1"
     inkscape:groupmode="layer"
     id="layer1"
     transform="translate(-34.041469,-149.48121)">
    <g
       id="text1"
       style="font-size:25.4px;line-height:0.5;text-align:center;text-anchor:middle;fill:#0b007c;stroke-width:0.264583"
       inkscape:label="text1"
       aria-label="The Liberator&#10;UNC's Progressive Voice">
      <path
         style="font-style:italic;font-family:'Playfair Display';-inkscape-font-specification:'Playfair Display Italic';fill:#ffffff"
         d="m 49.789445,165.91501 q 0.9652,-2.667 1.8288,-4.5212 0.889,-1.8542 1.7526,-2.9718 0.889,-1.143 1.778,-1.651 0.9144,-0.508 1.905,-0.508 1.143,0 1.6002,0.5334 0.4572,0.5334 0.4318,1.4224 -0.0254,0.8636 -0.3556,1.8796 l -2.4638,7.4168 q -0.1016,0.3302 -0.1778,0.7112 -0.0762,0.3556 0.0254,0.6096 0.127,0.254 0.5588,0.254 0.4826,0 0.9398,-0.5334 0.4826,-0.5334 1.016,-2.0574 l 0.3302,-0.9398 h 0.4826 l -0.635,1.8542 q -0.3556,1.0668 -0.889,1.6256 -0.5334,0.5588 -1.0922,0.762 -0.5588,0.2286 -1.0922,0.2286 -1.016,0 -1.4224,-0.4572 -0.4064,-0.4572 -0.3556,-1.27 0.0762,-0.8128 0.4064,-1.8288 l 2.413,-7.2644 q 0.1524,-0.4572 0.2286,-0.9398 0.1016,-0.508 -0.0508,-0.8382 -0.1524,-0.3556 -0.7366,-0.3556 -0.8128,0 -1.7272,0.889 -0.9144,0.889 -1.8542,2.5146 -0.9398,1.6002 -1.8288,3.81 -0.8636,2.2098 -1.6002,4.8768 z m 2.6416,-16.0782 q 0.635,-0.0254 1.2192,-0.1016 0.6096,-0.0762 1.0922,-0.254 l -5.6642,20.193 q 0,0 -0.2286,0 -0.2286,0 -0.5588,0 -0.3048,0 -0.635,0 -0.3302,0 -0.5588,0 -0.2286,0 -0.2286,0 z m -10.287,2.286 q 0,0 0.2286,0.0254 0.2286,0.0254 0.5588,0.0762 0.3556,0.0508 0.6858,0.1016 0.3556,0.0508 0.5842,0.0762 0.2286,0.0254 0.2286,0.0254 l -3.81,14.3002 q -0.254,0.9652 -0.2032,1.4986 0.0508,0.508 0.5334,0.7112 0.508,0.2032 1.5748,0.2286 l -0.1016,0.508 q -0.6604,-0.0508 -1.6764,-0.0508 -1.016,-0.0254 -2.1082,-0.0254 -1.0922,0 -2.1082,0.0254 -0.9906,0 -1.6002,0.0508 l 0.1016,-0.508 q 1.0668,-0.0508 1.651,-0.254 0.6096,-0.2286 0.9398,-0.7366 0.3556,-0.5334 0.635,-1.4478 z m 10.5156,-0.1016 q -0.9398,0.6096 -1.9812,0.8382 -1.016,0.2032 -2.4384,0.2032 -1.27,0 -2.4892,-0.1524 -1.1938,-0.1524 -2.3876,-0.3556 -1.1684,-0.2032 -2.3114,-0.3556 -1.1176,-0.1524 -2.2352,-0.1524 -0.7874,0 -1.6256,0.0762 -0.8128,0.0762 -1.2192,0.3556 0.2032,0.254 0.3302,0.6858 0.127,0.4064 0.127,0.7874 0,0.508 -0.3048,0.9906 -0.3048,0.4826 -0.9652,0.4826 -0.5588,0 -0.8382,-0.3556 -0.2794,-0.3556 -0.2794,-0.9144 0,-0.508 0.2794,-1.0414 0.2794,-0.5588 1.0668,-0.9398 0.5842,-0.2794 1.2446,-0.4064 0.6858,-0.127 1.27,-0.1524 0.6096,-0.0254 0.889,-0.0254 1.778,0 3.302,0.254 1.5494,0.2286 3.0734,0.4826 1.524,0.2286 3.2512,0.2286 1.3462,0 2.2352,-0.2032 0.9144,-0.2032 1.8542,-0.762 z m 10.185405,11.8872 q 1.4224,-0.4826 2.5654,-0.9398 1.1684,-0.4826 1.8542,-1.016 0.9144,-0.7366 1.4478,-1.778 0.5334,-1.0414 0.5334,-2.286 0,-0.7366 -0.1016,-0.9398 -0.1016,-0.2032 -0.3048,-0.2032 -0.635,0 -1.3716,0.5588 -0.7366,0.5588 -1.4478,1.5494 -0.7112,0.9652 -1.3208,2.2098 -0.5842,1.2446 -0.9398,2.667 -0.3556,1.397 -0.3556,2.794 0,1.2954 0.4826,1.8796 0.4826,0.5588 1.27,0.5588 0.9144,0 1.9304,-0.5588 1.016,-0.5588 1.9812,-1.9812 l 0.4064,0.2032 q -0.4826,0.8382 -1.27,1.6256 -0.7874,0.7874 -1.778,1.2954 -0.9652,0.4826 -2.0574,0.4826 -1.016,0 -1.778,-0.4064 -0.762,-0.4064 -1.1684,-1.1938 -0.4064,-0.8128 -0.4064,-1.9812 0,-1.0922 0.4064,-2.4384 0.4064,-1.3716 1.143,-2.7178 0.762,-1.3716 1.8034,-2.5146 1.0414,-1.143 2.3114,-1.8288 1.27,-0.6858 2.7178,-0.6858 0.7874,0 1.3208,0.4318 0.5588,0.4064 0.5588,1.2446 0,1.016 -0.6096,1.905 -0.5842,0.8636 -1.5748,1.6002 -0.9652,0.7112 -2.1082,1.27 -1.143,0.5588 -2.2352,0.9652 -1.0922,0.4064 -1.9304,0.6604 z m 28.778226,0.4318 q -0.1524,0.4064 -0.3048,0.9398 -0.1524,0.5334 -0.3302,1.143 -0.127,0.4826 -0.3302,1.397 -0.2032,0.889 -0.3556,1.8542 -1.2954,-0.0508 -2.921,-0.0508 -1.6256,-0.0254 -2.8956,-0.0254 -0.5588,0 -1.4478,0 -0.8636,0 -1.8796,0.0254 -1.016,0 -2.0574,0.0254 -1.0414,0 -1.9558,0.0254 l 0.127,-0.508 q 0.8636,-0.0508 1.3462,-0.2032 0.4826,-0.1524 0.7366,-0.6096 0.2794,-0.4572 0.5334,-1.3716 l 3.3782,-12.5984 q 0.254,-0.9398 0.2032,-1.3716 -0.0254,-0.4572 -0.4318,-0.6096 -0.381,-0.1778 -1.2446,-0.2032 l 0.127,-0.508 q 0.5334,0.0254 1.397,0.0508 0.8636,0.0254 1.8542,0.0254 0.889,0 1.7526,-0.0254 0.889,-0.0254 1.4732,-0.0508 l -0.127,0.508 q -0.8636,0.0254 -1.3462,0.2032 -0.4826,0.1524 -0.762,0.6096 -0.2794,0.4318 -0.5334,1.3716 l -3.3782,12.5984 q -0.254,0.9144 -0.2286,1.3716 0.0508,0.4572 0.4572,0.6096 0.4064,0.127 1.27,0.127 h 1.8542 q 1.6002,0 2.54,-0.4572 0.9652,-0.4572 1.6002,-1.4986 0.6604,-1.0414 1.2954,-2.794 z m 6.096015,-12.3444 q 0.127,-0.6604 0.6604,-1.143 0.5588,-0.4826 1.1938,-0.4826 0.660399,0 1.015999,0.4826 0.381,0.4826 0.254,1.143 -0.127,0.6604 -0.6858,1.143 -0.533399,0.4826 -1.193799,0.4826 -0.635,0 -1.016,-0.4826 -0.3556,-0.4826 -0.2286,-1.143 z m -0.7874,6.7818 q 0.5334,-1.5748 -0.3556,-1.5748 -0.5842,0 -1.0414,0.635 -0.4572,0.635 -0.9652,1.9558 l -0.3556,0.9398 h -0.4826 l 0.6604,-1.8542 q 0.381,-1.0668 0.9144,-1.6256 0.5334,-0.5588 1.1176,-0.762 0.6096,-0.2286 1.1176,-0.2286 0.8128,0 1.1938,0.3302 0.381,0.3302 0.4572,0.8636 0.0762,0.5334 -0.0508,1.1684 -0.127,0.6096 -0.3302,1.1938 l -2.7178,7.6962 q -0.254,0.7366 -0.1778,1.1684 0.1016,0.4064 0.5842,0.4064 0.508,0 0.9652,-0.5588 0.4572,-0.5588 1.016,-2.032 l 0.3556,-0.9398 h 0.4826 l -0.6604,1.8542 q -0.3556,0.9906 -0.8636,1.5748 -0.508,0.5588 -1.0922,0.7874 -0.5842,0.254 -1.1684,0.254 -1.0922,0 -1.4732,-0.508 -0.381,-0.508 -0.2794,-1.3208 0.1016,-0.8128 0.4318,-1.7272 z m 12.776179,-1.7018 q -0.6604,0 -1.4986,0.9398 -0.8128,0.9144 -1.6764,2.5146 -0.8382,1.5748 -1.6002,3.556 -0.7366,1.9812 -1.2446,4.1148 l 0.4318,-2.7432 q 1.0922,-3.3274 2.1082,-5.334 1.0414,-2.032 2.0574,-2.9464 1.0414,-0.9144 2.159,-0.9144 1.1938,0 1.905,0.889 0.7366,0.889 0.7366,2.6924 0,1.143 -0.3302,2.5146 -0.3048,1.3716 -0.9398,2.7178 -0.6096,1.3462 -1.524,2.4892 -0.889,1.1176 -2.0574,1.8034 -1.1684,0.6604 -2.5908,0.6604 -0.762,0 -1.3716,-0.4572 -0.5842,-0.4572 -0.7874,-1.3208 l 0.2032,-0.508 q 0.3556,0.9398 0.8128,1.3208 0.4826,0.381 1.1176,0.381 0.8636,0 1.651,-0.6604 0.7874,-0.6858 1.4478,-1.8034 0.6604,-1.1176 1.143,-2.4638 0.508,-1.3716 0.762,-2.7178 0.2794,-1.3716 0.2794,-2.5146 0,-1.1176 -0.3302,-1.651 -0.3048,-0.5588 -0.8636,-0.5588 z m -5.9182,11.0236 q -0.6096,0.4826 -1.2192,0.9906 -0.6096,0.4826 -1.2192,0.9906 l -0.381,-0.1778 q 0.1778,-0.3556 0.2794,-0.7112 0.127,-0.381 0.2032,-0.762 l 4.445,-15.6972 q 0.2032,-0.8636 -0.0762,-1.27 -0.2794,-0.4064 -1.524,-0.4064 l 0.127,-0.5334 q 1.397,-0.0254 2.4638,-0.2794 1.0668,-0.2794 2.0066,-0.762 z m 12.39519,-4.191 q 1.4224,-0.4826 2.5654,-0.9398 1.1684,-0.4826 1.8542,-1.016 0.9144,-0.7366 1.4478,-1.778 0.5334,-1.0414 0.5334,-2.286 0,-0.7366 -0.1016,-0.9398 -0.1016,-0.2032 -0.3048,-0.2032 -0.635,0 -1.3716,0.5588 -0.7366,0.5588 -1.4478,1.5494 -0.7112,0.9652 -1.3208,2.2098 -0.5842,1.2446 -0.9398,2.667 -0.3556,1.397 -0.3556,2.794 0,1.2954 0.4826,1.8796 0.4826,0.5588 1.27,0.5588 0.9144,0 1.9304,-0.5588 1.016,-0.5588 1.9812,-1.9812 l 0.4064,0.2032 q -0.4826,0.8382 -1.27,1.6256 -0.7874,0.7874 -1.778,1.2954 -0.9652,0.4826 -2.0574,0.4826 -1.016,0 -1.778,-0.4064 -0.762,-0.4064 -1.1684,-1.1938 -0.4064,-0.8128 -0.4064,-1.9812 0,-1.0922 0.4064,-2.4384 0.4064,-1.3716 1.143,-2.7178 0.762,-1.3716 1.8034,-2.5146 1.0414,-1.143 2.3114,-1.8288 1.27,-0.6858 2.7178,-0.6858 0.7874,0 1.3208,0.4318 0.5588,0.4064 0.5588,1.2446 0,1.016 -0.6096,1.905 -0.5842,0.8636 -1.5748,1.6002 -0.9652,0.7112 -2.1082,1.27 -1.143,0.5588 -2.2352,0.9652 -1.0922,0.4064 -1.9304,0.6604 z m 11.83642,5.7658 h -2.2098 l 3.048,-10.8966 q 0.254,-0.8636 0.1524,-1.2192 -0.0762,-0.3556 -0.508,-0.3556 -0.5588,0 -1.016,0.5842 -0.4572,0.5842 -0.9652,2.0066 l -0.3302,0.9398 h -0.4826 l 0.635,-1.8542 q 0.381,-1.0668 0.889,-1.6256 0.5334,-0.5588 1.0922,-0.762 0.5842,-0.2286 1.0922,-0.2286 0.762,0 1.0668,0.3302 0.3302,0.3302 0.3556,0.8636 0.0508,0.5334 -0.0762,1.1684 -0.1016,0.6096 -0.254,1.1938 z m 6.5278,-12.7762 q -0.5842,0 -1.2192,0.5588 -0.6096,0.5334 -1.27,1.5748 -0.635,1.016 -1.2954,2.4638 -0.635,1.4224 -1.27,3.175 -0.6096,1.7526 -1.1938,3.7846 l 0.635,-3.2512 q 0.8382,-2.4892 1.5494,-4.191 0.7366,-1.7018 1.4478,-2.7432 0.7112,-1.0668 1.4478,-1.524 0.762,-0.4826 1.6002,-0.4826 0.7112,0 1.0922,0.4064 0.4064,0.4064 0.4064,1.0414 0,0.508 -0.254,0.9398 -0.254,0.4064 -0.6604,0.6604 -0.381,0.2286 -0.8636,0.2286 -0.4318,0 -0.7366,-0.2286 -0.2794,-0.254 -0.2794,-0.6858 0,-0.4064 0.1524,-0.7112 0.1524,-0.3302 0.4064,-0.5588 0.254,-0.2286 0.5842,-0.3556 -0.0508,-0.0508 -0.127,-0.0762 -0.0508,-0.0254 -0.1524,-0.0254 z m 4.06401,12.319 q 0.6096,0 1.397,-0.762 0.7874,-0.7874 1.6002,-2.1082 0.8128,-1.3208 1.4986,-2.9972 0.6858,-1.6764 1.0922,-3.4798 l -0.4318,2.7432 q -0.9652,2.6924 -1.9304,4.3434 -0.9652,1.6256 -1.9558,2.3622 -0.9906,0.7112 -2.0066,0.7112 -1.1938,0 -1.8034,-0.8636 -0.5842,-0.8636 -0.5842,-2.2098 0,-1.2192 0.4064,-2.6416 0.4064,-1.4478 1.1176,-2.8702 0.7366,-1.4224 1.6764,-2.5908 0.9398,-1.1684 2.032,-1.8796 1.1176,-0.7112 2.2606,-0.7112 0.889,0 1.3462,0.889 0.4826,0.8636 0.2032,2.4384 l -0.2794,0.1524 q 0.1778,-1.3462 -0.1778,-2.159 -0.3556,-0.8382 -1.1684,-0.8382 -0.6604,0 -1.397,0.6604 -0.7112,0.635 -1.397,1.7526 -0.6604,1.0922 -1.2192,2.4638 -0.5334,1.3716 -0.8636,2.8448 -0.3048,1.4478 -0.3048,2.794 0,1.0922 0.2286,1.524 0.254,0.4318 0.6604,0.4318 z m 6.4008,-12.5984 q 0.6096,-0.0254 1.2192,-0.1016 0.6096,-0.0762 1.1176,-0.254 l -3.175,11.2268 q -0.0508,0.2286 -0.1524,0.6096 -0.0762,0.3556 0,0.6604 0.1016,0.3048 0.5334,0.3048 0.508,0 0.9906,-0.5588 0.4826,-0.5588 0.9652,-2.032 l 0.3048,-0.9398 h 0.4826 l -0.635,1.8542 q -0.3556,1.016 -0.8636,1.6002 -0.4826,0.5588 -1.016,0.7874 -0.5334,0.254 -1.0414,0.254 -0.9906,0 -1.397,-0.6604 -0.3302,-0.5842 -0.1778,-1.3462 0.1524,-0.7874 0.3556,-1.5748 z m 13.05562,0 -0.0762,0.508 h -7.8994 l 0.127,-0.508 z m -6.4516,10.8966 q -0.2286,0.8382 0.1016,1.2192 0.3556,0.3556 0.9144,0.3556 0.5588,0 1.1176,-0.4826 0.5842,-0.4826 1.143,-2.0574 l 0.3556,-0.9906 h 0.4826 l -0.5334,1.6002 q -0.5588,1.651 -1.4478,2.2606 -0.8636,0.6096 -2.032,0.6096 -1.0414,0 -1.6002,-0.4318 -0.5334,-0.4572 -0.635,-1.27 -0.1016,-0.8128 0.2032,-1.8542 l 3.937,-13.716 q 0.6096,-0.0254 1.1938,-0.1016 0.6096,-0.0762 1.0922,-0.254 z m 13.1826,-10.7442 q -0.8128,0 -1.5748,0.6604 -0.7366,0.635 -1.3716,1.7526 -0.6096,1.0922 -1.0922,2.4638 -0.4572,1.3716 -0.7112,2.8448 -0.254,1.4732 -0.254,2.8194 0,1.143 0.3556,1.6764 0.381,0.5334 1.0922,0.5334 0.8128,0 1.5494,-0.635 0.762,-0.6604 1.397,-1.7526 0.635,-1.1176 1.0922,-2.4892 0.4572,-1.3716 0.7112,-2.8194 0.254,-1.4732 0.254,-2.8448 0,-1.1684 -0.3556,-1.6764 -0.3556,-0.5334 -1.0922,-0.5334 z m -7.1882,9.271 q 0,-1.1176 0.3048,-2.4384 0.3048,-1.3208 0.9144,-2.6162 0.6096,-1.2954 1.4732,-2.3622 0.889,-1.0668 2.0574,-1.7018 1.1684,-0.6604 2.5908,-0.6604 1.5748,0 2.5146,0.9906 0.9652,0.9652 0.9652,2.9972 0,1.1176 -0.3048,2.4384 -0.3048,1.3208 -0.9144,2.6162 -0.6096,1.2954 -1.4986,2.3622 -0.8636,1.0668 -2.032,1.7272 -1.1684,0.635 -2.5908,0.635 -1.5748,0 -2.54,-0.9906 -0.9398,-0.9906 -0.9398,-2.9972 z m 14.93523,3.6322 h -2.2098 l 3.048,-10.8966 q 0.254,-0.8636 0.1524,-1.2192 -0.0762,-0.3556 -0.508,-0.3556 -0.5588,0 -1.016,0.5842 -0.4572,0.5842 -0.9652,2.0066 l -0.3302,0.9398 h -0.4826 l 0.635,-1.8542 q 0.381,-1.0668 0.889,-1.6256 0.5334,-0.5588 1.0922,-0.762 0.5842,-0.2286 1.0922,-0.2286 0.762,0 1.0668,0.3302 0.3302,0.3302 0.3556,0.8636 0.0508,0.5334 -0.0762,1.1684 -0.1016,0.6096 -0.254,1.1938 z m 6.5278,-12.7762 q -0.5842,0 -1.2192,0.5588 -0.6096,0.5334 -1.27,1.5748 -0.635,1.016 -1.2954,2.4638 -0.635,1.4224 -1.27,3.175 -0.6096,1.7526 -1.1938,3.7846 l 0.635,-3.2512 q 0.8382,-2.4892 1.5494,-4.191 0.7366,-1.7018 1.4478,-2.7432 0.7112,-1.0668 1.4478,-1.524 0.762,-0.4826 1.6002,-0.4826 0.7112,0 1.0922,0.4064 0.4064,0.4064 0.4064,1.0414 0,0.508 -0.254,0.9398 -0.254,0.4064 -0.6604,0.6604 -0.381,0.2286 -0.8636,0.2286 -0.4318,0 -0.7366,-0.2286 -0.2794,-0.254 -0.2794,-0.6858 0,-0.4064 0.1524,-0.7112 0.1524,-0.3302 0.4064,-0.5588 0.254,-0.2286 0.5842,-0.3556 -0.0508,-0.0508 -0.127,-0.0762 -0.0508,-0.0254 -0.1524,-0.0254 z"
         id="path1"
         inkscape:label="path1" />
      <path
         style="font-style:italic;font-size:11.2889px;font-family:'Playfair Display';-inkscape-font-specification:'Playfair Display Italic';fill:#ffffff"
         d="m 55.392925,175.69118 q 0.112889,-0.41769 0.06773,-0.64347 -0.04516,-0.22577 -0.248356,-0.32738 -0.191911,-0.1016 -0.575734,-0.11288 l 0.05644,-0.22578 q 0.191911,0.0113 0.519289,0.0226 0.338667,0.0113 0.62089,0.0113 0.293511,0 0.575734,-0.0113 0.293511,-0.0113 0.485422,-0.0226 l -0.05644,0.22578 q -0.383823,0.0113 -0.609601,0.11288 -0.225778,0.10161 -0.361245,0.32738 -0.124178,0.22578 -0.225778,0.64347 l -0.880534,3.39796 q -0.4064,1.55787 -1.106312,2.39325 -0.406401,0.47413 -1.016001,0.76764 -0.598312,0.28222 -1.298224,0.28222 -0.553156,0 -1.004712,-0.14675 -0.440267,-0.13547 -0.733778,-0.46285 -0.406401,-0.46284 -0.395112,-1.1176 0.01129,-0.65475 0.282223,-1.68204 l 0.936978,-3.54472 q 0.112889,-0.41769 0.09031,-0.6096 -0.02258,-0.2032 -0.203201,-0.27093 -0.169333,-0.079 -0.553156,-0.0903 l 0.06773,-0.22578 q 0.225778,0.0113 0.620889,0.0226 0.395112,0.0113 0.835379,0.0113 0.395111,0 0.767645,-0.0113 0.372534,-0.0113 0.643467,-0.0226 l -0.06773,0.22578 q -0.383823,0.0113 -0.598312,0.0903 -0.214489,0.0677 -0.338667,0.27093 -0.112889,0.19191 -0.225778,0.6096 l -0.993423,3.73663 q -0.146756,0.57573 -0.225778,1.09502 -0.06773,0.508 0.02258,0.90311 0.09031,0.38383 0.395111,0.6096 0.304801,0.21449 0.891823,0.21449 0.846668,0 1.411113,-0.37253 0.564445,-0.38382 0.92569,-1.04987 0.361245,-0.66604 0.575734,-1.50142 z m 6.208886,6.73947 -2.630313,-7.42809 q 0,0 -0.04516,0.0903 -0.03387,0.079 -0.09031,0.2032 -0.04516,0.11289 -0.09031,0.2032 -0.03387,0.079 -0.03387,0.079 0.09031,-0.41769 0.05644,-0.6096 -0.02258,-0.2032 -0.225778,-0.27093 -0.191911,-0.079 -0.632178,-0.0903 l 0.05644,-0.22578 q 0.180622,0.0113 0.440267,0.0226 0.270933,0.0113 0.564445,0.0113 0.530578,0 0.914401,-0.0339 l 2.167469,6.34436 q 0,0 -0.02258,0.12418 -0.01129,0.12418 -0.03387,0.31609 -0.02258,0.19191 -0.04516,0.41769 -0.02258,0.21449 -0.04515,0.4064 -0.02258,0.19191 -0.04516,0.31609 -0.01129,0.12417 -0.01129,0.12417 z m 3.443115,-8.3312 q -0.316089,0.0113 -0.541867,0.16933 -0.214489,0.14675 -0.383823,0.4064 -0.519289,0.76764 -1.061156,2.69805 -0.541868,1.9304 -1.207913,5.05742 l -0.158044,-0.31609 q 0.169333,-0.75635 0.361245,-1.6256 0.191911,-0.88053 0.4064,-1.76107 0.225778,-0.88053 0.451556,-1.68204 0.237067,-0.80151 0.485423,-1.43369 0.259644,-0.64347 0.519289,-1.02729 0.214489,-0.3048 0.508001,-0.508 0.293511,-0.21449 0.7112,-0.21449 0.395112,0 0.530579,0.18062 0.146755,0.16933 0.146755,0.39511 0,0.28222 -0.169333,0.55316 -0.169334,0.25964 -0.496712,0.25964 -0.248356,0 -0.338667,-0.14675 -0.09031,-0.14676 -0.09031,-0.29351 0,-0.19192 0.1016,-0.38383 0.112889,-0.19191 0.259645,-0.32737 -0.01129,0 -0.02258,0 z m -9.121431,8.87307 q 0.3048,-0.0113 0.530578,-0.16933 0.237067,-0.14676 0.4064,-0.41769 0.327378,-0.51929 0.654757,-1.6256 0.338667,-1.10632 0.677334,-2.67547 0.349955,-1.56916 0.699911,-3.44312 l 0.191912,0.23707 q -0.180623,0.92569 -0.383823,1.88525 -0.191911,0.94826 -0.395111,1.86266 -0.203201,0.90312 -0.41769,1.68205 -0.214489,0.77893 -0.428978,1.35467 -0.214489,0.56444 -0.417689,0.83538 -0.2032,0.27093 -0.485423,0.48542 -0.270934,0.22578 -0.72249,0.22578 -0.395111,0 -0.530578,-0.18062 -0.146756,-0.16934 -0.146756,-0.4064 0,-0.28223 0.169334,-0.54187 0.169333,-0.25965 0.496711,-0.25965 0.259645,0 0.338668,0.14676 0.09031,0.14675 0.09031,0.29351 0,0.19191 -0.112889,0.38382 -0.1016,0.19191 -0.248356,0.32738 0.01129,0 0.02258,0 z m 16.662419,-8.59085 q -0.169334,0.44027 -0.349956,1.07244 -0.180623,0.62089 -0.372534,1.52401 h -0.248356 q 0.09031,-0.58703 0.05645,-0.98214 -0.02258,-0.4064 -0.169334,-0.68862 -0.214489,-0.42898 -0.620889,-0.65476 -0.395112,-0.22578 -0.857957,-0.22578 -0.587022,0 -1.140179,0.34996 -0.553156,0.33867 -1.02729,0.92569 -0.474133,0.58702 -0.835378,1.33209 -0.361245,0.73378 -0.564445,1.53529 -0.2032,0.79022 -0.2032,1.54658 0,1.10631 0.428978,1.65947 0.440267,0.55315 1.185334,0.55315 0.474134,0 1.02729,-0.22577 0.564445,-0.22578 0.982135,-0.65476 0.3048,-0.3048 0.519289,-0.7112 0.225778,-0.41769 0.496712,-1.07245 h 0.248356 q -0.282223,1.02729 -0.440268,1.65947 -0.146755,0.62089 -0.225778,1.04987 h -0.248355 q 0.03387,-0.23707 0.03387,-0.38382 0,-0.25965 -0.09031,-0.28223 -0.09031,-0.0339 -0.282222,0.0903 -0.304801,0.2032 -0.609601,0.37253 -0.3048,0.15804 -0.666045,0.25964 -0.361245,0.1016 -0.857957,0.1016 -1.241779,0 -1.94169,-0.66604 -0.688623,-0.67734 -0.688623,-1.98685 0,-0.76764 0.237067,-1.55787 0.237066,-0.80151 0.677334,-1.53529 0.440267,-0.73377 1.049867,-1.30951 0.609601,-0.57573 1.354668,-0.9144 0.745068,-0.33867 1.603024,-0.33867 0.485423,0 0.790223,0.11289 0.304801,0.1016 0.508001,0.27094 0.214489,0.15804 0.383822,0.34995 0.158045,0.15805 0.293512,0.0452 0.146755,-0.12418 0.327378,-0.62089 z m 2.156181,0.12418 q 0,0.24835 -0.135467,0.51929 -0.124178,0.25964 -0.327378,0.62088 -0.2032,0.34996 -0.428978,0.88054 h -0.158045 q 0.07902,-0.55316 0.1016,-0.88054 0.02258,-0.33866 0.04516,-0.56444 0.02258,-0.23707 0.07902,-0.47413 0.05645,-0.25965 0.191911,-0.36125 0.135467,-0.11289 0.282223,-0.11289 0.191911,0 0.270933,0.11289 0.07902,0.1016 0.07902,0.25965 z m 0.14676,7.69903 q 0.09031,0.0452 0.191911,0.079 0.112889,0.0226 0.327378,0.0226 0.496712,0 0.812801,-0.29352 0.327378,-0.3048 0.327378,-0.86924 0,-0.34996 -0.135467,-0.68862 -0.124178,-0.34996 -0.451556,-0.80152 -0.259644,-0.36124 -0.496711,-0.73377 -0.237067,-0.38383 -0.237067,-0.90312 0,-0.48542 0.237067,-0.83537 0.237067,-0.36125 0.632178,-0.56445 0.406401,-0.2032 0.880534,-0.2032 0.327378,0 0.643468,0.079 0.316089,0.079 0.519289,0.29351 0.214489,0.2032 0.214489,0.6096 0,0.1016 -0.05644,0.24836 -0.04516,0.13547 -0.158045,0.23707 -0.112889,0.1016 -0.3048,0.1016 -0.180623,0 -0.316089,-0.12418 -0.135467,-0.13547 -0.135467,-0.34996 0,-0.2032 0.07902,-0.38382 0.09031,-0.19191 0.237067,-0.37253 -0.214489,-0.13547 -0.564445,-0.13547 -0.417689,0 -0.699912,0.28222 -0.282222,0.28223 -0.282222,0.79023 0,0.25964 0.07902,0.46284 0.07902,0.19191 0.225778,0.4064 0.158045,0.21449 0.372534,0.54187 0.282222,0.42898 0.474133,0.82409 0.191912,0.39511 0.191912,0.83538 0,0.51929 -0.270934,0.92569 -0.259645,0.39511 -0.699912,0.62089 -0.440267,0.22577 -0.970845,0.22577 -0.383823,0 -0.733779,-0.11288 -0.349956,-0.11289 -0.575734,-0.34996 -0.214489,-0.24836 -0.214489,-0.65476 0,-0.15804 0.1016,-0.32738 0.09031,-0.18062 0.338667,-0.18062 0.270934,0 0.383823,0.22578 0.112889,0.21449 0.112889,0.48542 0,0.18063 -0.03387,0.32738 -0.02258,0.13547 -0.04515,0.25965 z m 8.782773,-3.03672 0.05644,-0.22578 h 0.508001 q 0.835378,0 1.411112,-0.22577 0.575734,-0.23707 0.92569,-0.65476 0.349956,-0.41769 0.508001,-0.95956 0.158044,-0.55315 0.158044,-1.18533 0,-0.66605 -0.338667,-0.98214 -0.327378,-0.32737 -1.095023,-0.32737 -0.327378,0 -0.530578,0.0903 -0.191912,0.079 -0.31609,0.29351 -0.112889,0.2032 -0.214489,0.58702 l -1.490135,5.5993 q -0.09031,0.34995 -0.1016,0.56444 -0.01129,0.2032 0.146756,0.3048 0.169333,0.0903 0.620889,0.1016 l -0.04516,0.22578 q -0.259645,-0.0226 -0.632179,-0.0226 -0.372533,-0.0113 -0.767645,-0.0113 -0.440267,0 -0.835378,0.0113 -0.395112,0 -0.632179,0.0226 l 0.04516,-0.22578 q 0.383822,-0.0226 0.598312,-0.0903 0.214489,-0.0677 0.338667,-0.27093 0.124177,-0.2032 0.225778,-0.6096 l 1.490134,-5.5993 q 0.1016,-0.36124 0.09031,-0.56444 0,-0.21449 -0.169334,-0.3048 -0.169333,-0.1016 -0.587023,-0.1016 l 0.05644,-0.22578 q 0.225778,0.0113 0.620889,0.0226 0.395112,0.0113 0.767646,0.0113 0.4064,0 0.8128,-0.0113 0.41769,-0.0113 0.835379,-0.0113 1.140179,0 1.693335,0.47413 0.553156,0.46285 0.553156,1.23049 0,0.88054 -0.541867,1.58045 -0.530578,0.68862 -1.490135,1.09502 -0.959556,0.39511 -2.223913,0.39511 z m 5.72348,3.20605 h -0.982135 l 1.354668,-4.84294 q 0.112889,-0.38382 0.06773,-0.54187 -0.03387,-0.15804 -0.225778,-0.15804 -0.248356,0 -0.451556,0.25964 -0.2032,0.25965 -0.428978,0.89183 l -0.146756,0.41769 h -0.214489 l 0.282222,-0.82409 q 0.169334,-0.47414 0.395112,-0.72249 0.237067,-0.24836 0.485423,-0.33867 0.259644,-0.1016 0.485422,-0.1016 0.338667,0 0.474134,0.14676 0.146756,0.14675 0.158045,0.38382 0.02258,0.23707 -0.03387,0.51929 -0.04516,0.27093 -0.112889,0.53058 z m 2.901247,-5.67832 q -0.259645,0 -0.541867,0.24836 -0.270934,0.23707 -0.564445,0.69991 -0.282223,0.45156 -0.575734,1.09502 -0.282222,0.63218 -0.564445,1.41112 -0.270934,0.77893 -0.530578,1.68204 l 0.282222,-1.44498 q 0.372534,-1.10631 0.688623,-1.86267 0.327378,-0.75635 0.643467,-1.2192 0.31609,-0.47413 0.643468,-0.67733 0.338667,-0.21449 0.7112,-0.21449 0.31609,0 0.485423,0.18062 0.180623,0.18062 0.180623,0.46285 0,0.22578 -0.112889,0.41769 -0.112889,0.18062 -0.293512,0.29351 -0.169333,0.1016 -0.383822,0.1016 -0.191912,0 -0.327379,-0.1016 -0.124177,-0.11289 -0.124177,-0.3048 0,-0.18062 0.06773,-0.31609 0.06773,-0.14676 0.180622,-0.24836 0.112889,-0.1016 0.259645,-0.15804 -0.02258,-0.0226 -0.05644,-0.0339 -0.02258,-0.0113 -0.06773,-0.0113 z m 3.747915,-0.0564 q -0.361244,0 -0.699911,0.29351 -0.327378,0.28222 -0.609601,0.77893 -0.270934,0.48543 -0.485423,1.09503 -0.2032,0.6096 -0.316089,1.26435 -0.112889,0.65476 -0.112889,1.25307 0,0.508 0.158045,0.74507 0.169333,0.23707 0.485422,0.23707 0.361245,0 0.688623,-0.28223 0.338667,-0.29351 0.62089,-0.77893 0.282222,-0.49671 0.485423,-1.10631 0.2032,-0.6096 0.316089,-1.25307 0.112889,-0.65476 0.112889,-1.26436 0,-0.51929 -0.158045,-0.74507 -0.158044,-0.23706 -0.485423,-0.23706 z m -3.194758,4.12045 q 0,-0.49671 0.135466,-1.08374 0.135467,-0.58702 0.406401,-1.16275 0.270933,-0.57574 0.654756,-1.04987 0.395112,-0.47414 0.914401,-0.75636 0.519289,-0.29351 1.151468,-0.29351 0.699912,0 1.117601,0.44027 0.428978,0.42898 0.428978,1.33209 0,0.49671 -0.135467,1.08373 -0.135466,0.58702 -0.4064,1.16276 -0.270934,0.57573 -0.666045,1.04987 -0.383823,0.47413 -0.903112,0.76764 -0.51929,0.28222 -1.151468,0.28222 -0.699912,0 -1.12889,-0.44026 -0.417689,-0.44027 -0.417689,-1.33209 z m 7.710328,-0.92569 0.28222,0.0113 q -0.4064,0.22577 -0.75635,0.41769 -0.338669,0.18062 -0.553158,0.33866 -0.214489,0.15805 -0.214489,0.3048 0,0.11289 0.158045,0.21449 0.158044,0.0903 0.519289,0.18062 l 0.824093,0.21449 q 0.36124,0.0903 0.64346,0.21449 0.29352,0.11289 0.46285,0.29351 0.16933,0.18063 0.16933,0.47414 0,0.28222 -0.19191,0.63218 -0.18062,0.36124 -0.57573,0.68862 -0.38383,0.32738 -1.00471,0.54187 -0.620894,0.21448 -1.501428,0.21448 -0.587023,0 -0.982135,-0.11288 -0.4064,-0.1016 -0.598311,-0.29352 -0.203201,-0.19191 -0.203201,-0.44026 0,-0.18062 0.1016,-0.38383 0.101601,-0.19191 0.304801,-0.38382 0.191911,-0.18062 0.496711,-0.34995 0.293512,-0.15805 0.699912,-0.27094 l 0.07902,0.16934 q -0.41769,0.21449 -0.575734,0.48542 -0.158045,0.27093 -0.158045,0.54187 0,0.45155 0.316089,0.64346 0.316089,0.2032 0.778934,0.2032 0.372534,0 0.767646,-0.12417 0.395108,-0.11289 0.733778,-0.31609 0.33867,-0.19191 0.54187,-0.45156 0.2032,-0.25964 0.2032,-0.54187 0,-0.16933 -0.11289,-0.22577 -0.1016,-0.0564 -0.34996,-0.11289 l -1.727199,-0.44027 q -0.270934,-0.0677 -0.440267,-0.22578 -0.169334,-0.16933 -0.169334,-0.45155 0,-0.22578 0.158045,-0.46285 0.158044,-0.23707 0.598312,-0.51929 0.440267,-0.29351 1.275643,-0.67733 z m 0.57574,-3.21734 q -0.36125,0 -0.6096,0.21449 -0.24836,0.2032 -0.41769,0.53058 -0.158048,0.31609 -0.24836,0.66604 -0.07902,0.34996 -0.112889,0.64347 -0.03387,0.28222 -0.03387,0.41769 0,0.36124 0.158044,0.51929 0.169331,0.15804 0.440271,0.15804 0.42897,0 0.68862,-0.25964 0.27093,-0.25965 0.41769,-0.64347 0.14675,-0.38382 0.19191,-0.76764 0.0564,-0.38383 0.0564,-0.64347 0,-0.38382 -0.1016,-0.6096 -0.1016,-0.22578 -0.42897,-0.22578 z m 0.0451,-0.2032 q 0.66605,0 1.07245,0.3048 0.41769,0.29351 0.41769,0.95956 0,0.54186 -0.3048,1.07244 -0.3048,0.53058 -0.85796,0.88054 -0.55316,0.33866 -1.30951,0.33866 -0.620892,0 -1.04987,-0.29351 -0.41769,-0.3048 -0.41769,-0.93698 0,-0.3048 0.124178,-0.69991 0.135467,-0.4064 0.41769,-0.76764 0.282222,-0.37254 0.745072,-0.6096 0.47413,-0.24836 1.16275,-0.24836 z m 0.80151,0.58702 -0.2032,-0.079 q 0.15805,-0.38382 0.54187,-0.67733 0.38382,-0.29351 0.80151,-0.29351 0.29351,0 0.47414,0.16933 0.18062,0.15804 0.18062,0.508 0,0.31609 -0.15805,0.46284 -0.15804,0.14676 -0.33866,0.14676 -0.18063,0 -0.34996,-0.11289 -0.15804,-0.12418 -0.19191,-0.38382 -0.0339,-0.25965 0.14676,-0.66605 l 0.14675,0.0339 q -0.47413,0.18062 -0.67733,0.38382 -0.2032,0.19191 -0.37254,0.508 z m 2.57387,5.37352 h -0.98214 l 1.35467,-4.84294 q 0.11289,-0.38382 0.0677,-0.54187 -0.0339,-0.15804 -0.22577,-0.15804 -0.24836,0 -0.45156,0.25964 -0.2032,0.25965 -0.42898,0.89183 l -0.14675,0.41769 h -0.21449 l 0.28222,-0.82409 q 0.16933,-0.47414 0.39511,-0.72249 0.23707,-0.24836 0.48542,-0.33867 0.25965,-0.1016 0.48543,-0.1016 0.33866,0 0.47413,0.14676 0.14676,0.14675 0.15805,0.38382 0.0226,0.23707 -0.0339,0.51929 -0.0452,0.27093 -0.11289,0.53058 z m 2.90124,-5.67832 q -0.25964,0 -0.54186,0.24836 -0.27094,0.23707 -0.56445,0.69991 -0.28222,0.45156 -0.57573,1.09502 -0.28222,0.63218 -0.56445,1.41112 -0.27093,0.77893 -0.53058,1.68204 l 0.28223,-1.44498 q 0.37253,-1.10631 0.68862,-1.86267 0.32738,-0.75635 0.64347,-1.2192 0.31609,-0.47413 0.64347,-0.67733 0.33866,-0.21449 0.7112,-0.21449 0.31608,0 0.48542,0.18062 0.18062,0.18062 0.18062,0.46285 0,0.22578 -0.11289,0.41769 -0.11289,0.18062 -0.29351,0.29351 -0.16933,0.1016 -0.38382,0.1016 -0.19191,0 -0.32738,-0.1016 -0.12418,-0.11289 -0.12418,-0.3048 0,-0.18062 0.0677,-0.31609 0.0677,-0.14676 0.18062,-0.24836 0.11289,-0.1016 0.25964,-0.15804 -0.0226,-0.0226 -0.0564,-0.0339 -0.0226,-0.0113 -0.0677,-0.0113 z m 1.26436,3.11574 q 0.63218,-0.21449 1.14018,-0.41769 0.51929,-0.21449 0.82409,-0.45156 0.4064,-0.32737 0.64347,-0.79022 0.23706,-0.46284 0.23706,-1.016 0,-0.32738 -0.0451,-0.41769 -0.0452,-0.0903 -0.13547,-0.0903 -0.28222,0 -0.6096,0.24835 -0.32738,0.24836 -0.64347,0.68863 -0.31608,0.42898 -0.58702,0.98213 -0.25964,0.55316 -0.41769,1.18534 -0.15804,0.62089 -0.15804,1.24178 0,0.57573 0.21449,0.83537 0.21449,0.24836 0.56444,0.24836 0.4064,0 0.85796,-0.24836 0.45155,-0.24835 0.88053,-0.88053 l 0.18062,0.0903 q -0.21448,0.37254 -0.56444,0.72249 -0.34996,0.34996 -0.79022,0.57573 -0.42898,0.21449 -0.9144,0.21449 -0.45156,0 -0.79023,-0.18062 -0.33866,-0.18062 -0.51929,-0.53058 -0.18062,-0.36124 -0.18062,-0.88053 0,-0.48542 0.18062,-1.08374 0.18063,-0.6096 0.508,-1.20791 0.33867,-0.6096 0.80152,-1.1176 0.46284,-0.508 1.02729,-0.8128 0.56444,-0.3048 1.20791,-0.3048 0.34995,0 0.58702,0.19191 0.24836,0.18062 0.24836,0.55316 0,0.45155 -0.27094,0.84666 -0.25964,0.38383 -0.69991,0.71121 -0.42898,0.31608 -0.93698,0.56444 -0.508,0.24836 -0.99342,0.42898 -0.48542,0.18062 -0.85796,0.29351 z m 4.56073,2.39325 q 0.0903,0.0452 0.19191,0.079 0.11289,0.0226 0.32738,0.0226 0.49671,0 0.8128,-0.29352 0.32738,-0.3048 0.32738,-0.86924 0,-0.34996 -0.13547,-0.68862 -0.12418,-0.34996 -0.45156,-0.80152 -0.25964,-0.36124 -0.49671,-0.73377 -0.23706,-0.38383 -0.23706,-0.90312 0,-0.48542 0.23706,-0.83537 0.23707,-0.36125 0.63218,-0.56445 0.4064,-0.2032 0.88053,-0.2032 0.32738,0 0.64347,0.079 0.31609,0.079 0.51929,0.29351 0.21449,0.2032 0.21449,0.6096 0,0.1016 -0.0564,0.24836 -0.0452,0.13547 -0.15805,0.23707 -0.11289,0.1016 -0.3048,0.1016 -0.18062,0 -0.31609,-0.12418 -0.13546,-0.13547 -0.13546,-0.34996 0,-0.2032 0.079,-0.38382 0.0903,-0.19191 0.23706,-0.37253 -0.21448,-0.13547 -0.56444,-0.13547 -0.41769,0 -0.69991,0.28222 -0.28223,0.28223 -0.28223,0.79023 0,0.25964 0.079,0.46284 0.079,0.19191 0.22578,0.4064 0.15804,0.21449 0.37253,0.54187 0.28222,0.42898 0.47413,0.82409 0.19191,0.39511 0.19191,0.83538 0,0.51929 -0.27093,0.92569 -0.25964,0.39511 -0.69991,0.62089 -0.44027,0.22577 -0.97085,0.22577 -0.38382,0 -0.73378,-0.11288 -0.34995,-0.11289 -0.57573,-0.34996 -0.21449,-0.24836 -0.21449,-0.65476 0,-0.15804 0.1016,-0.32738 0.0903,-0.18062 0.33867,-0.18062 0.27093,0 0.38382,0.22578 0.11289,0.21449 0.11289,0.48542 0,0.18063 -0.0339,0.32738 -0.0226,0.13547 -0.0452,0.25965 z m 4.30108,0 q 0.0903,0.0452 0.19191,0.079 0.11289,0.0226 0.32738,0.0226 0.49671,0 0.8128,-0.29352 0.32738,-0.3048 0.32738,-0.86924 0,-0.34996 -0.13547,-0.68862 -0.12418,-0.34996 -0.45156,-0.80152 -0.25964,-0.36124 -0.49671,-0.73377 -0.23707,-0.38383 -0.23707,-0.90312 0,-0.48542 0.23707,-0.83537 0.23707,-0.36125 0.63218,-0.56445 0.4064,-0.2032 0.88053,-0.2032 0.32738,0 0.64347,0.079 0.31609,0.079 0.51929,0.29351 0.21449,0.2032 0.21449,0.6096 0,0.1016 -0.0564,0.24836 -0.0452,0.13547 -0.15804,0.23707 -0.11289,0.1016 -0.3048,0.1016 -0.18062,0 -0.31609,-0.12418 -0.13547,-0.13547 -0.13547,-0.34996 0,-0.2032 0.079,-0.38382 0.0903,-0.19191 0.23706,-0.37253 -0.21449,-0.13547 -0.56444,-0.13547 -0.41769,0 -0.69991,0.28222 -0.28223,0.28223 -0.28223,0.79023 0,0.25964 0.079,0.46284 0.079,0.19191 0.22577,0.4064 0.15805,0.21449 0.37254,0.54187 0.28222,0.42898 0.47413,0.82409 0.19191,0.39511 0.19191,0.83538 0,0.51929 -0.27093,0.92569 -0.25965,0.39511 -0.69991,0.62089 -0.44027,0.22577 -0.97085,0.22577 -0.38382,0 -0.73378,-0.11288 -0.34995,-0.11289 -0.57573,-0.34996 -0.21449,-0.24836 -0.21449,-0.65476 0,-0.15804 0.1016,-0.32738 0.0903,-0.18062 0.33867,-0.18062 0.27093,0 0.38382,0.22578 0.11289,0.21449 0.11289,0.48542 0,0.18063 -0.0339,0.32738 -0.0226,0.13547 -0.0452,0.25965 z m 5.76863,-7.68775 q 0.0564,-0.29351 0.29351,-0.508 0.24835,-0.21448 0.53057,-0.21448 0.29352,0 0.45156,0.21448 0.16933,0.21449 0.11289,0.508 -0.0564,0.29352 -0.3048,0.50801 -0.23707,0.21448 -0.53058,0.21448 -0.28222,0 -0.45155,-0.21448 -0.15805,-0.21449 -0.1016,-0.50801 z m -0.34996,3.01414 q 0.23707,-0.69991 -0.15805,-0.69991 -0.25964,0 -0.46284,0.28222 -0.2032,0.28222 -0.42898,0.86925 l -0.15804,0.41769 h -0.21449 l 0.29351,-0.82409 q 0.16933,-0.47414 0.4064,-0.72249 0.23707,-0.24836 0.49671,-0.33867 0.27093,-0.1016 0.49671,-0.1016 0.36125,0 0.53058,0.14676 0.16933,0.14675 0.2032,0.38382 0.0339,0.23707 -0.0226,0.51929 -0.0564,0.27093 -0.14675,0.53058 l -1.20791,3.42053 q -0.11289,0.32738 -0.079,0.51929 0.0452,0.18062 0.25965,0.18062 0.22578,0 0.42898,-0.24835 0.2032,-0.24836 0.45155,-0.90311 l 0.15805,-0.41769 h 0.21449 l -0.29352,0.82409 q -0.15804,0.44026 -0.38382,0.69991 -0.22578,0.24835 -0.48542,0.34996 -0.25965,0.11288 -0.51929,0.11288 -0.48542,0 -0.65476,-0.22577 -0.16933,-0.22578 -0.12417,-0.58703 0.0452,-0.36124 0.19191,-0.76764 z m 6.97654,0.56445 q -0.31609,-0.15805 -0.58702,-0.46285 -0.27094,-0.3048 -0.23707,-0.75636 0.0226,-0.25964 0.18062,-0.36124 0.16934,-0.11289 0.31609,-0.11289 0.39511,0 0.54187,0.45156 0.14675,0.44026 0.0677,1.14018 -0.079,0.66604 -0.27093,1.3208 -0.19191,0.65475 -0.49671,1.23049 -0.29351,0.57573 -0.7112,1.02729 -0.41769,0.45155 -0.93698,0.7112 -0.51929,0.24835 -1.15147,0.24835 -0.508,0 -0.80151,-0.2032 -0.28222,-0.21449 -0.39511,-0.53057 -0.11289,-0.32738 -0.0903,-0.66605 0.0452,-0.63218 0.38382,-1.35467 0.34995,-0.73378 0.9144,-1.47884 0.57573,-0.75636 1.3208,-1.45627 -0.18062,0.0677 -0.38382,0.19191 -0.2032,0.11289 -0.39511,0.23707 -0.19192,0.11289 -0.37254,0.2032 -0.18062,0.079 -0.33866,0.079 -0.21449,0 -0.37254,-0.13547 -0.14675,-0.14675 -0.33867,-0.14675 -0.18062,0 -0.3048,0.15804 -0.11288,0.14676 -0.24835,0.54187 l -0.12418,0.41769 h -0.21449 l 0.24836,-0.82409 q 0.19191,-0.67734 0.47413,-0.9144 0.29351,-0.23707 0.58702,-0.23707 0.21449,0 0.36125,0.11289 0.14675,0.11289 0.29351,0.22578 0.15804,0.1016 0.37253,0.1016 0.27094,0 0.508,-0.079 0.24836,-0.0903 0.44027,-0.27093 l 0.11289,-0.21449 0.23707,0.11289 q -0.45156,0.55316 -0.8128,1.10631 -0.34996,0.55316 -0.6096,1.1176 -0.24836,0.56445 -0.4064,1.14018 -0.14676,0.57574 -0.2032,1.17405 -0.0452,0.65476 0.0903,0.93698 0.14675,0.28222 0.39511,0.28222 0.53058,0 0.98213,-0.28222 0.45156,-0.28222 0.80151,-0.74507 0.36125,-0.46284 0.60961,-1.00471 0.25964,-0.55316 0.39511,-1.08374 0.14675,-0.53057 0.16933,-0.94826 z m 1.61433,1.71591 q 0.63218,-0.21449 1.14018,-0.41769 0.51929,-0.21449 0.82409,-0.45156 0.4064,-0.32737 0.64346,-0.79022 0.23707,-0.46284 0.23707,-1.016 0,-0.32738 -0.0452,-0.41769 -0.0451,-0.0903 -0.13546,-0.0903 -0.28222,0 -0.6096,0.24835 -0.32738,0.24836 -0.64347,0.68863 -0.31609,0.42898 -0.58702,0.98213 -0.25965,0.55316 -0.41769,1.18534 -0.15805,0.62089 -0.15805,1.24178 0,0.57573 0.21449,0.83537 0.21449,0.24836 0.56445,0.24836 0.4064,0 0.85795,-0.24836 0.45156,-0.24835 0.88054,-0.88053 l 0.18062,0.0903 q -0.21449,0.37254 -0.56444,0.72249 -0.34996,0.34996 -0.79023,0.57573 -0.42898,0.21449 -0.9144,0.21449 -0.45155,0 -0.79022,-0.18062 -0.33867,-0.18062 -0.51929,-0.53058 -0.18062,-0.36124 -0.18062,-0.88053 0,-0.48542 0.18062,-1.08374 0.18062,-0.6096 0.508,-1.20791 0.33867,-0.6096 0.80151,-1.1176 0.46285,-0.508 1.02729,-0.8128 0.56445,-0.3048 1.20791,-0.3048 0.34996,0 0.58703,0.19191 0.24835,0.18062 0.24835,0.55316 0,0.45155 -0.27093,0.84666 -0.25965,0.38383 -0.69991,0.71121 -0.42898,0.31608 -0.93698,0.56444 -0.508,0.24836 -0.99343,0.42898 -0.48542,0.18062 -0.85795,0.29351 z m 13.27576,-3.60116 q 0.39511,-0.6096 0.46284,-0.94827 0.079,-0.34995 -0.13546,-0.49671 -0.2032,-0.14676 -0.67734,-0.15804 l 0.0565,-0.22578 q 0.21448,0.0113 0.42897,0.0226 0.22578,0 0.44027,0.0113 0.22578,0 0.41769,0 0.29351,0 0.48542,-0.0113 0.19191,-0.0113 0.37254,-0.0226 l -0.0565,0.22578 q -0.15804,0.0339 -0.33866,0.13546 -0.18063,0.1016 -0.38383,0.3048 -0.2032,0.2032 -0.41769,0.54187 l -4.44782,6.84107 q -0.0452,0 -0.0903,0 -0.0339,0 -0.079,0 l -0.89182,-7.10071 q -0.0452,-0.4064 -0.23707,-0.55316 -0.19191,-0.15805 -0.34995,-0.16933 l 0.0564,-0.22578 q 0.22578,0.0113 0.56445,0.0226 0.33866,0.0113 0.65475,0.0113 0.44027,0 0.76765,-0.0113 0.33867,-0.0113 0.58702,-0.0226 l -0.0564,0.22578 q -0.34996,0.0113 -0.57574,0.079 -0.21449,0.0564 -0.29351,0.25964 -0.079,0.19191 -0.0339,0.6096 l 0.65476,5.54285 -0.0564,-0.0226 z m 3.47698,0.42898 q -0.36124,0 -0.69991,0.29351 -0.32738,0.28222 -0.6096,0.77893 -0.27093,0.48543 -0.48542,1.09503 -0.2032,0.6096 -0.31609,1.26435 -0.11289,0.65476 -0.11289,1.25307 0,0.508 0.15804,0.74507 0.16934,0.23707 0.48543,0.23707 0.36124,0 0.68862,-0.28223 0.33867,-0.29351 0.62089,-0.77893 0.28222,-0.49671 0.48542,-1.10631 0.2032,-0.6096 0.31609,-1.25307 0.11289,-0.65476 0.11289,-1.26436 0,-0.51929 -0.15804,-0.74507 -0.15805,-0.23706 -0.48543,-0.23706 z m -3.19476,4.12045 q 0,-0.49671 0.13547,-1.08374 0.13547,-0.58702 0.4064,-1.16275 0.27094,-0.57574 0.65476,-1.04987 0.39511,-0.47414 0.9144,-0.75636 0.51929,-0.29351 1.15147,-0.29351 0.69991,0 1.1176,0.44027 0.42898,0.42898 0.42898,1.33209 0,0.49671 -0.13547,1.08373 -0.13547,0.58702 -0.4064,1.16276 -0.27093,0.57573 -0.66605,1.04987 -0.38382,0.47413 -0.90311,0.76764 -0.51929,0.28222 -1.15147,0.28222 -0.69991,0 -1.12889,-0.44026 -0.41769,-0.44027 -0.41769,-1.33209 z m 7.40553,-6.24277 q 0.0565,-0.29351 0.29352,-0.508 0.24835,-0.21448 0.53057,-0.21448 0.29352,0 0.45156,0.21448 0.16933,0.21449 0.11289,0.508 -0.0565,0.29352 -0.3048,0.50801 -0.23707,0.21448 -0.53058,0.21448 -0.28222,0 -0.45156,-0.21448 -0.15804,-0.21449 -0.1016,-0.50801 z m -0.34995,3.01414 q 0.23707,-0.69991 -0.15805,-0.69991 -0.25964,0 -0.46284,0.28222 -0.2032,0.28222 -0.42898,0.86925 l -0.15804,0.41769 h -0.21449 l 0.29351,-0.82409 q 0.16933,-0.47414 0.4064,-0.72249 0.23707,-0.24836 0.49671,-0.33867 0.27093,-0.1016 0.49671,-0.1016 0.36125,0 0.53058,0.14676 0.16933,0.14675 0.2032,0.38382 0.0339,0.23707 -0.0226,0.51929 -0.0564,0.27093 -0.14675,0.53058 l -1.20791,3.42053 q -0.11289,0.32738 -0.079,0.51929 0.0452,0.18062 0.25965,0.18062 0.22578,0 0.42898,-0.24835 0.2032,-0.24836 0.45155,-0.90311 l 0.15805,-0.41769 h 0.21449 l -0.29352,0.82409 q -0.15804,0.44026 -0.38382,0.69991 -0.22578,0.24835 -0.48542,0.34996 -0.25965,0.11288 -0.51929,0.11288 -0.48542,0 -0.65476,-0.22577 -0.16933,-0.22578 -0.12417,-0.58703 0.0451,-0.36124 0.19191,-0.76764 z m 5.27192,-0.89182 q -0.42898,0 -0.85796,0.34995 -0.41769,0.34996 -0.76765,0.95956 -0.34995,0.6096 -0.56444,1.38854 -0.2032,0.77893 -0.2032,1.63689 0,0.57573 0.21449,0.83537 0.22578,0.24836 0.57573,0.24836 0.4064,0 0.83538,-0.24836 0.42898,-0.24835 0.85796,-0.88053 l 0.22577,0.0903 q -0.21448,0.37254 -0.56444,0.72249 -0.34996,0.34996 -0.79022,0.57573 -0.42898,0.21449 -0.9144,0.21449 -0.67734,0 -1.08374,-0.41769 -0.4064,-0.41768 -0.4064,-1.24177 0,-0.51929 0.14676,-1.11761 0.15804,-0.6096 0.44026,-1.19662 0.29352,-0.59831 0.7112,-1.07244 0.41769,-0.48543 0.94827,-0.77894 0.53058,-0.29351 1.16276,-0.29351 0.49671,0 0.85796,0.25964 0.36124,0.24836 0.36124,0.69992 0,0.21449 -0.1016,0.42897 -0.0903,0.2032 -0.27093,0.33867 -0.18063,0.13547 -0.42898,0.13547 -0.23707,0 -0.34996,-0.12418 -0.11289,-0.13547 -0.11289,-0.31609 0,-0.32738 0.25965,-0.55315 0.25964,-0.23707 0.58702,-0.29352 -0.11289,-0.15804 -0.29351,-0.24835 -0.18062,-0.1016 -0.47413,-0.1016 z m 2.17874,3.17218 q 0.63218,-0.21449 1.14018,-0.41769 0.51929,-0.21449 0.82409,-0.45156 0.4064,-0.32737 0.64347,-0.79022 0.23706,-0.46284 0.23706,-1.016 0,-0.32738 -0.0452,-0.41769 -0.0452,-0.0903 -0.13547,-0.0903 -0.28222,0 -0.6096,0.24835 -0.32738,0.24836 -0.64347,0.68863 -0.31609,0.42898 -0.58702,0.98213 -0.25964,0.55316 -0.41769,1.18534 -0.15804,0.62089 -0.15804,1.24178 0,0.57573 0.21449,0.83537 0.21449,0.24836 0.56444,0.24836 0.4064,0 0.85796,-0.24836 0.45155,-0.24835 0.88053,-0.88053 l 0.18062,0.0903 q -0.21448,0.37254 -0.56444,0.72249 -0.34996,0.34996 -0.79022,0.57573 -0.42898,0.21449 -0.9144,0.21449 -0.45156,0 -0.79023,-0.18062 -0.33866,-0.18062 -0.51929,-0.53058 -0.18062,-0.36124 -0.18062,-0.88053 0,-0.48542 0.18062,-1.08374 0.18063,-0.6096 0.508,-1.20791 0.33867,-0.6096 0.80152,-1.1176 0.46284,-0.508 1.02729,-0.8128 0.56444,-0.3048 1.20791,-0.3048 0.34995,0 0.58702,0.19191 0.24836,0.18062 0.24836,0.55316 0,0.45155 -0.27094,0.84666 -0.25964,0.38383 -0.69991,0.71121 -0.42898,0.31608 -0.93698,0.56444 -0.508,0.24836 -0.99342,0.42898 -0.48542,0.18062 -0.85796,0.29351 z"
         id="path2" />
    </g>
  </g>
</svg>
