<?xml version="1.0" encoding="UTF-8" standalone="no"?>
<!-- Created with Inkscape (http://www.inkscape.org/) -->

<svg
   width="146.96448mm"
   height="20.599421mm"
   viewBox="0 0 146.96448 20.599421"
   version="1.1"
   id="svg1"
   sodipodi:docname="logo.svg"
   inkscape:version="1.4.2 (ebf0e940d0, 2025-05-08)"
   xmlns:inkscape="http://www.inkscape.org/namespaces/inkscape"
   xmlns:sodipodi="http://sodipodi.sourceforge.net/DTD/sodipodi-0.dtd"
   xmlns="http://www.w3.org/2000/svg"
   xmlns:svg="http://www.w3.org/2000/svg">
  <sodipodi:namedview
     id="namedview1"
     pagecolor="#848484"
     bordercolor="#111111"
     borderopacity="1"
     inkscape:showpageshadow="0"
     inkscape:pageopacity="0"
     inkscape:pagecheckerboard="1"
     inkscape:deskcolor="#d1d1d1"
     inkscape:document-units="mm"
     inkscape:zoom="1.3709435"
     inkscape:cx="152.44976"
     inkscape:cy="82.424988"
     inkscape:window-width="1536"
     inkscape:window-height="833"
     inkscape:window-x="0"
     inkscape:window-y="0"
     inkscape:window-maximized="1"
     inkscape:current-layer="layer1">
    <inkscape:page
       x="0"
       y="0"
       width="146.96448"
       height="20.599421"
       id="page2"
       margin="0"
       bleed="0" />
  </sodipodi:namedview>
  <defs
     id="defs1" />
  <g
     inkscape:label="Layer 1"
     inkscape:groupmode="layer"
     id="layer1"
     transform="translate(-34.041469,-149.48121)">
    <path
       style="font-style:italic;font-size:25.4px;font-family:'Playfair Display';-inkscape-font-specification:'Playfair Display Italic';text-align:center;text-anchor:middle;fill:#ffffff;stroke-width:0.264583"
       d="m 49.789445,165.91501 q 0.9652,-2.667 1.8288,-4.5212 0.889,-1.8542 1.7526,-2.9718 0.889,-1.143 1.778,-1.651 0.9144,-0.508 1.905,-0.508 1.143,0 1.6002,0.5334 0.4572,0.5334 0.4318,1.4224 -0.0254,0.8636 -0.3556,1.8796 l -2.4638,7.4168 q -0.1016,0.3302 -0.1778,0.7112 -0.0762,0.3556 0.0254,0.6096 0.127,0.254 0.5588,0.254 0.4826,0 0.9398,-0.5334 0.4826,-0.5334 1.016,-2.0574 l 0.3302,-0.9398 h 0.4826 l -0.635,1.8542 q -0.3556,1.0668 -0.889,1.6256 -0.5334,0.5588 -1.0922,0.762 -0.5588,0.2286 -1.0922,0.2286 -1.016,0 -1.4224,-0.4572 -0.4064,-0.4572 -0.3556,-1.27 0.0762,-0.8128 0.4064,-1.8288 l 2.413,-7.2644 q 0.1524,-0.4572 0.2286,-0.9398 0.1016,-0.508 -0.0508,-0.8382 -0.1524,-0.3556 -0.7366,-0.3556 -0.8128,0 -1.7272,0.889 -0.9144,0.889 -1.8542,2.5146 -0.9398,1.6002 -1.8288,3.81 -0.8636,2.2098 -1.6002,4.8768 z m 2.6416,-16.0782 q 0.635,-0.0254 1.2192,-0.1016 0.6096,-0.0762 1.0922,-0.254 l -5.6642,20.193 q 0,0 -0.2286,0 -0.2286,0 -0.5588,0 -0.3048,0 -0.635,0 -0.3302,0 -0.5588,0 -0.2286,0 -0.2286,0 z m -10.287,2.286 q 0,0 0.2286,0.0254 0.2286,0.0254 0.5588,0.0762 0.3556,0.0508 0.6858,0.1016 0.3556,0.0508 0.5842,0.0762 0.2286,0.0254 0.2286,0.0254 l -3.81,14.3002 q -0.254,0.9652 -0.2032,1.4986 0.0508,0.508 0.5334,0.7112 0.508,0.2032 1.5748,0.2286 l -0.1016,0.508 q -0.6604,-0.0508 -1.6764,-0.0508 -1.016,-0.0254 -2.1082,-0.0254 -1.0922,0 -2.1082,0.0254 -0.9906,0 -1.6002,0.0508 l 0.1016,-0.508 q 1.0668,-0.0508 1.651,-0.254 0.6096,-0.2286 0.9398,-0.7366 0.3556,-0.5334 0.635,-1.4478 z m 10.5156,-0.1016 q -0.9398,0.6096 -1.9812,0.8382 -1.016,0.2032 -2.4384,0.2032 -1.27,0 -2.4892,-0.1524 -1.1938,-0.1524 -2.3876,-0.3556 -1.1684,-0.2032 -2.3114,-0.3556 -1.1176,-0.1524 -2.2352,-0.1524 -0.7874,0 -1.6256,0.0762 -0.8128,0.0762 -1.2192,0.3556 0.2032,0.254 0.3302,0.6858 0.127,0.4064 0.127,0.7874 0,0.508 -0.3048,0.9906 -0.3048,0.4826 -0.9652,0.4826 -0.5588,0 -0.8382,-0.3556 -0.2794,-0.3556 -0.2794,-0.9144 0,-0.508 0.2794,-1.0414 0.2794,-0.5588 1.0668,-0.9398 0.5842,-0.2794 1.2446,-0.4064 0.6858,-0.127 1.27,-0.1524 0.6096,-0.0254 0.889,-0.0254 1.778,0 3.302,0.254 1.5494,0.2286 3.0734,0.4826 1.524,0.2286 3.2512,0.2286 1.3462,0 2.2352,-0.2032 0.9144,-0.2032 1.8542,-0.762 z m 10.185405,11.8872 q 1.4224,-0.4826 2.5654,-0.9398 1.1684,-0.4826 1.8542,-1.016 0.9144,-0.7366 1.4478,-1.778 0.5334,-1.0414 0.5334,-2.286 0,-0.7366 -0.1016,-0.9398 -0.1016,-0.2032 -0.3048,-0.2032 -0.635,0 -1.3716,0.5588 -0.7366,0.5588 -1.4478,1.5494 -0.7112,0.9652 -1.3208,2.2098 -0.5842,1.2446 -0.9398,2.667 -0.3556,1.397 -0.3556,2.794 0,1.2954 0.4826,1.8796 0.4826,0.5588 1.27,0.5588 0.9144,0 1.9304,-0.5588 1.016,-0.5588 1.9812,-1.9812 l 0.4064,0.2032 q -0.4826,0.8382 -1.27,1.6256 -0.7874,0.7874 -1.778,1.2954 -0.9652,0.4826 -2.0574,0.4826 -1.016,0 -1.778,-0.4064 -0.762,-0.4064 -1.1684,-1.1938 -0.4064,-0.8128 -0.4064,-1.9812 0,-1.0922 0.4064,-2.4384 0.4064,-1.3716 1.143,-2.7178 0.762,-1.3716 1.8034,-2.5146 1.0414,-1.143 2.3114,-1.8288 1.27,-0.6858 2.7178,-0.6858 0.7874,0 1.3208,0.4318 0.5588,0.4064 0.5588,1.2446 0,1.016 -0.6096,1.905 -0.5842,0.8636 -1.5748,1.6002 -0.9652,0.7112 -2.1082,1.27 -1.143,0.5588 -2.2352,0.9652 -1.0922,0.4064 -1.9304,0.6604 z m 28.778226,0.4318 q -0.1524,0.4064 -0.3048,0.9398 -0.1524,0.5334 -0.3302,1.143 -0.127,0.4826 -0.3302,1.397 -0.2032,0.889 -0.3556,1.8542 -1.2954,-0.0508 -2.921,-0.0508 -1.6256,-0.0254 -2.8956,-0.0254 -0.5588,0 -1.4478,0 -0.8636,0 -1.8796,0.0254 -1.016,0 -2.0574,0.0254 -1.0414,0 -1.9558,0.0254 l 0.127,-0.508 q 0.8636,-0.0508 1.3462,-0.2032 0.4826,-0.1524 0.7366,-0.6096 0.2794,-0.4572 0.5334,-1.3716 l 3.3782,-12.5984 q 0.254,-0.9398 0.2032,-1.3716 -0.0254,-0.4572 -0.4318,-0.6096 -0.381,-0.1778 -1.2446,-0.2032 l 0.127,-0.508 q 0.5334,0.0254 1.397,0.0508 0.8636,0.0254 1.8542,0.0254 0.889,0 1.7526,-0.0254 0.889,-0.0254 1.4732,-0.0508 l -0.127,0.508 q -0.8636,0.0254 -1.3462,0.2032 -0.4826,0.1524 -0.762,0.6096 -0.2794,0.4318 -0.5334,1.3716 l -3.3782,12.5984 q -0.254,0.9144 -0.2286,1.3716 0.0508,0.4572 0.4572,0.6096 0.4064,0.127 1.27,0.127 h 1.8542 q 1.6002,0 2.54,-0.4572 0.9652,-0.4572 1.6002,-1.4986 0.6604,-1.0414 1.2954,-2.794 z m 6.096015,-12.3444 q 0.127,-0.6604 0.6604,-1.143 0.5588,-0.4826 1.1938,-0.4826 0.660399,0 1.015999,0.4826 0.381,0.4826 0.254,1.143 -0.127,0.6604 -0.6858,1.143 -0.533399,0.4826 -1.193799,0.4826 -0.635,0 -1.016,-0.4826 -0.3556,-0.4826 -0.2286,-1.143 z m -0.7874,6.7818 q 0.5334,-1.5748 -0.3556,-1.5748 -0.5842,0 -1.0414,0.635 -0.4572,0.635 -0.9652,1.9558 l -0.3556,0.9398 h -0.4826 l 0.6604,-1.8542 q 0.381,-1.0668 0.9144,-1.6256 0.5334,-0.5588 1.1176,-0.762 0.6096,-0.2286 1.1176,-0.2286 0.8128,0 1.1938,0.3302 0.381,0.3302 0.4572,0.8636 0.0762,0.5334 -0.0508,1.1684 -0.127,0.6096 -0.3302,1.1938 l -2.7178,7.6962 q -0.254,0.7366 -0.1778,1.1684 0.1016,0.4064 0.5842,0.4064 0.508,0 0.9652,-0.5588 0.4572,-0.5588 1.016,-2.032 l 0.3556,-0.9398 h 0.4826 l -0.6604,1.8542 q -0.3556,0.9906 -0.8636,1.5748 -0.508,0.5588 -1.0922,0.7874 -0.5842,0.254 -1.1684,0.254 -1.0922,0 -1.4732,-0.508 -0.381,-0.508 -0.2794,-1.3208 0.1016,-0.8128 0.4318,-1.7272 z m 12.776179,-1.7018 q -0.6604,0 -1.4986,0.9398 -0.8128,0.9144 -1.6764,2.5146 -0.8382,1.5748 -1.6002,3.556 -0.7366,1.9812 -1.2446,4.1148 l 0.4318,-2.7432 q 1.0922,-3.3274 2.1082,-5.334 1.0414,-2.032 2.0574,-2.9464 1.0414,-0.9144 2.159,-0.9144 1.1938,0 1.905,0.889 0.7366,0.889 0.7366,2.6924 0,1.143 -0.3302,2.5146 -0.3048,1.3716 -0.9398,2.7178 -0.6096,1.3462 -1.524,2.4892 -0.889,1.1176 -2.0574,1.8034 -1.1684,0.6604 -2.5908,0.6604 -0.762,0 -1.3716,-0.4572 -0.5842,-0.4572 -0.7874,-1.3208 l 0.2032,-0.508 q 0.3556,0.9398 0.8128,1.3208 0.4826,0.381 1.1176,0.381 0.8636,0 1.651,-0.6604 0.7874,-0.6858 1.4478,-1.8034 0.6604,-1.1176 1.143,-2.4638 0.508,-1.3716 0.762,-2.7178 0.2794,-1.3716 0.2794,-2.5146 0,-1.1176 -0.3302,-1.651 -0.3048,-0.5588 -0.8636,-0.5588 z m -5.9182,11.0236 q -0.6096,0.4826 -1.2192,0.9906 -0.6096,0.4826 -1.2192,0.9906 l -0.381,-0.1778 q 0.1778,-0.3556 0.2794,-0.7112 0.127,-0.381 0.2032,-0.762 l 4.445,-15.6972 q 0.2032,-0.8636 -0.0762,-1.27 -0.2794,-0.4064 -1.524,-0.4064 l 0.127,-0.5334 q 1.397,-0.0254 2.4638,-0.2794 1.0668,-0.2794 2.0066,-0.762 z m 12.39519,-4.191 q 1.4224,-0.4826 2.5654,-0.9398 1.1684,-0.4826 1.8542,-1.016 0.9144,-0.7366 1.4478,-1.778 0.5334,-1.0414 0.5334,-2.286 0,-0.7366 -0.1016,-0.9398 -0.1016,-0.2032 -0.3048,-0.2032 -0.635,0 -1.3716,0.5588 -0.7366,0.5588 -1.4478,1.5494 -0.7112,0.9652 -1.3208,2.2098 -0.5842,1.2446 -0.9398,2.667 -0.3556,1.397 -0.3556,2.794 0,1.2954 0.4826,1.8796 0.4826,0.5588 1.27,0.5588 0.9144,0 1.9304,-0.5588 1.016,-0.5588 1.9812,-1.9812 l 0.4064,0.2032 q -0.4826,0.8382 -1.27,1.6256 -0.7874,0.7874 -1.778,1.2954 -0.9652,0.4826 -2.0574,0.4826 -1.016,0 -1.778,-0.4064 -0.762,-0.4064 -1.1684,-1.1938 -0.4064,-0.8128 -0.4064,-1.9812 0,-1.0922 0.4064,-2.4384 0.4064,-1.3716 1.143,-2.7178 0.762,-1.3716 1.8034,-2.5146 1.0414,-1.143 2.3114,-1.8288 1.27,-0.6858 2.7178,-0.6858 0.7874,0 1.3208,0.4318 0.5588,0.4064 0.5588,1.2446 0,1.016 -0.6096,1.905 -0.5842,0.8636 -1.5748,1.6002 -0.9652,0.7112 -2.1082,1.27 -1.143,0.5588 -2.2352,0.9652 -1.0922,0.4064 -1.9304,0.6604 z m 11.83642,5.7658 h -2.2098 l 3.048,-10.8966 q 0.254,-0.8636 0.1524,-1.2192 -0.0762,-0.3556 -0.508,-0.3556 -0.5588,0 -1.016,0.5842 -0.4572,0.5842 -0.9652,2.0066 l -0.3302,0.9398 h -0.4826 l 0.635,-1.8542 q 0.381,-1.0668 0.889,-1.6256 0.5334,-0.5588 1.0922,-0.762 0.5842,-0.2286 1.0922,-0.2286 0.762,0 1.0668,0.3302 0.3302,0.3302 0.3556,0.8636 0.0508,0.5334 -0.0762,1.1684 -0.1016,0.6096 -0.254,1.1938 z m 6.5278,-12.7762 q -0.5842,0 -1.2192,0.5588 -0.6096,0.5334 -1.27,1.5748 -0.635,1.016 -1.2954,2.4638 -0.635,1.4224 -1.27,3.175 -0.6096,1.7526 -1.1938,3.7846 l 0.635,-3.2512 q 0.8382,-2.4892 1.5494,-4.191 0.7366,-1.7018 1.4478,-2.7432 0.7112,-1.0668 1.4478,-1.524 0.762,-0.4826 1.6002,-0.4826 0.7112,0 1.0922,0.4064 0.4064,0.4064 0.4064,1.0414 0,0.508 -0.254,0.9398 -0.254,0.4064 -0.6604,0.6604 -0.381,0.2286 -0.8636,0.2286 -0.4318,0 -0.7366,-0.2286 -0.2794,-0.254 -0.2794,-0.6858 0,-0.4064 0.1524,-0.7112 0.1524,-0.3302 0.4064,-0.5588 0.254,-0.2286 0.5842,-0.3556 -0.0508,-0.0508 -0.127,-0.0762 -0.0508,-0.0254 -0.1524,-0.0254 z m 4.06401,12.319 q 0.6096,0 1.397,-0.762 0.7874,-0.7874 1.6002,-2.1082 0.8128,-1.3208 1.4986,-2.9972 0.6858,-1.6764 1.0922,-3.4798 l -0.4318,2.7432 q -0.9652,2.6924 -1.9304,4.3434 -0.9652,1.6256 -1.9558,2.3622 -0.9906,0.7112 -2.0066,0.7112 -1.1938,0 -1.8034,-0.8636 -0.5842,-0.8636 -0.5842,-2.2098 0,-1.2192 0.4064,-2.6416 0.4064,-1.4478 1.1176,-2.8702 0.7366,-1.4224 1.6764,-2.5908 0.9398,-1.1684 2.032,-1.8796 1.1176,-0.7112 2.2606,-0.7112 0.889,0 1.3462,0.889 0.4826,0.8636 0.2032,2.4384 l -0.2794,0.1524 q 0.1778,-1.3462 -0.1778,-2.159 -0.3556,-0.8382 -1.1684,-0.8382 -0.6604,0 -1.397,0.6604 -0.7112,0.635 -1.397,1.7526 -0.6604,1.0922 -1.2192,2.4638 -0.5334,1.3716 -0.8636,2.8448 -0.3048,1.4478 -0.3048,2.794 0,1.0922 0.2286,1.524 0.254,0.4318 0.6604,0.4318 z m 6.4008,-12.5984 q 0.6096,-0.0254 1.2192,-0.1016 0.6096,-0.0762 1.1176,-0.254 l -3.175,11.2268 q -0.0508,0.2286 -0.1524,0.6096 -0.0762,0.3556 0,0.6604 0.1016,0.3048 0.5334,0.3048 0.508,0 0.9906,-0.5588 0.4826,-0.5588 0.9652,-2.032 l 0.3048,-0.9398 h 0.4826 l -0.635,1.8542 q -0.3556,1.016 -0.8636,1.6002 -0.4826,0.5588 -1.016,0.7874 -0.5334,0.254 -1.0414,0.254 -0.9906,0 -1.397,-0.6604 -0.3302,-0.5842 -0.1778,-1.3462 0.1524,-0.7874 0.3556,-1.5748 z m 13.05562,0 -0.0762,0.508 h -7.8994 l 0.127,-0.508 z m -6.4516,10.8966 q -0.2286,0.8382 0.1016,1.2192 0.3556,0.3556 0.9144,0.3556 0.5588,0 1.1176,-0.4826 0.5842,-0.4826 1.143,-2.0574 l 0.3556,-0.9906 h 0.4826 l -0.5334,1.6002 q -0.5588,1.651 -1.4478,2.2606 -0.8636,0.6096 -2.032,0.6096 -1.0414,0 -1.6002,-0.4318 -0.5334,-0.4572 -0.635,-1.27 -0.1016,-0.8128 0.2032,-1.8542 l 3.937,-13.716 q 0.6096,-0.0254 1.1938,-0.1016 0.6096,-0.0762 1.0922,-0.254 z m 13.1826,-10.7442 q -0.8128,0 -1.5748,0.6604 -0.7366,0.635 -1.3716,1.7526 -0.6096,1.0922 -1.0922,2.4638 -0.4572,1.3716 -0.7112,2.8448 -0.254,1.4732 -0.254,2.8194 0,1.143 0.3556,1.6764 0.381,0.5334 1.0922,0.5334 0.8128,0 1.5494,-0.635 0.762,-0.6604 1.397,-1.7526 0.635,-1.1176 1.0922,-2.4892 0.4572,-1.3716 0.7112,-2.8194 0.254,-1.4732 0.254,-2.8448 0,-1.1684 -0.3556,-1.6764 -0.3556,-0.5334 -1.0922,-0.5334 z m -7.1882,9.271 q 0,-1.1176 0.3048,-2.4384 0.3048,-1.3208 0.9144,-2.6162 0.6096,-1.2954 1.4732,-2.3622 0.889,-1.0668 2.0574,-1.7018 1.1684,-0.6604 2.5908,-0.6604 1.5748,0 2.5146,0.9906 0.9652,0.9652 0.9652,2.9972 0,1.1176 -0.3048,2.4384 -0.3048,1.3208 -0.9144,2.6162 -0.6096,1.2954 -1.4986,2.3622 -0.8636,1.0668 -2.032,1.7272 -1.1684,0.635 -2.5908,0.635 -1.5748,0 -2.54,-0.9906 -0.9398,-0.9906 -0.9398,-2.9972 z m 14.93523,3.6322 h -2.2098 l 3.048,-10.8966 q 0.254,-0.8636 0.1524,-1.2192 -0.0762,-0.3556 -0.508,-0.3556 -0.5588,0 -1.016,0.5842 -0.4572,0.5842 -0.9652,2.0066 l -0.3302,0.9398 h -0.4826 l 0.635,-1.8542 q 0.381,-1.0668 0.889,-1.6256 0.5334,-0.5588 1.0922,-0.762 0.5842,-0.2286 1.0922,-0.2286 0.762,0 1.0668,0.3302 0.3302,0.3302 0.3556,0.8636 0.0508,0.5334 -0.0762,1.1684 -0.1016,0.6096 -0.254,1.1938 z m 6.5278,-12.7762 q -0.5842,0 -1.2192,0.5588 -0.6096,0.5334 -1.27,1.5748 -0.635,1.016 -1.2954,2.4638 -0.635,1.4224 -1.27,3.175 -0.6096,1.7526 -1.1938,3.7846 l 0.635,-3.2512 q 0.8382,-2.4892 1.5494,-4.191 0.7366,-1.7018 1.4478,-2.7432 0.7112,-1.0668 1.4478,-1.524 0.762,-0.4826 1.6002,-0.4826 0.7112,0 1.0922,0.4064 0.4064,0.4064 0.4064,1.0414 0,0.508 -0.254,0.9398 -0.254,0.4064 -0.6604,0.6604 -0.381,0.2286 -0.8636,0.2286 -0.4318,0 -0.7366,-0.2286 -0.2794,-0.254 -0.2794,-0.6858 0,-0.4064 0.1524,-0.7112 0.1524,-0.3302 0.4064,-0.5588 0.254,-0.2286 0.5842,-0.3556 -0.0508,-0.0508 -0.127,-0.0762 -0.0508,-0.0254 -0.1524,-0.0254 z"
       id="text1"
       inkscape:label="text1"
       aria-label="The Liberator" />
  </g>
</svg>
